Patient4_TMGait_0pt4_02_left_26_EMG.mot
version=1
nRows=36
nColumns=33
inDegrees=no
endheader
time	1LAddLong	2LGlutMax	3LGlutMed	4LIliopsoas	5LSemiMemb	6LBicFemLong	7LRecFem	8LVastMed	9LVastLat	10LGasMed	11LTibAnt	12lTibPost	13LPeroneusLong	14LSol	15LExtDigLong	16LFlexDigLong	17RAddLong	18RGlutMax	19RGlutMed	20RIliopsoas	21RSemiMemb	22RBicFemLong	23RRecFem	24RVastMed	25RVastLat	26RGasMed	27RTibAnt	28RTibPost	29RPeroneusLong	30RSol	31RExtDigLong	32RFlexDigLong
35.865	0.023804	0.026245	-0.23773	0.003204	-0.013733	0.021515	0.15488	-0.003967	-0.040741	-0.32242	0.008698	-0.006409	0.045319	-0.071716	-0.004578	0.011139	-0.04776	-0.066528	-0.25406	0.003967	0.40741	0.051575	-0.24994	0.22568	-0.10132	-0.00824	-0.016174	-0.012512	0.03006	-0.071564	-0.004272	-0.012817
35.866	0.026245	0.010529	-0.21286	0.011444	0.002289	0.012207	0.15381	0.002441	-0.038757	-0.1918	0.004883	-0.000458	0.049591	-0.053101	-0.032806	0.007629	-0.072479	-0.074768	-0.32837	0.023193	0.34698	0.019226	-0.36453	0.26657	-0.039673	0.002289	-0.030212	-0.010834	0.042725	-0.028839	0	-0.007477
35.867	0.051422	0.07782	-0.18829	0.026398	0.021362	-0.006104	0.15274	-0.004425	-0.056458	0.070038	0.020752	0.018463	0.028534	-0.040741	0.022278	0.013428	-0.052032	-0.090942	-0.097809	0.014191	-0.018921	0.13962	-0.29221	0.26779	0.010529	-0.000458	-0.001526	-0.008087	0.015106	-0.062561	-0.002136	-0.00824
35.868	-0.023956	0.032501	-0.23789	0.020599	0.030212	-0.035248	0.1384	0.005188	-0.046539	-0.004883	0.037689	0.01709	0.031128	-0.001831	0.097046	-0.005188	-0.066681	-0.18249	0.61951	-0.015259	-0.16007	0.099945	-0.19592	0.19577	-0.050201	0.000153	0.047607	-0.009308	-0.18662	-0.067596	-0.001831	-0.001678
35.869	-0.010834	0.044098	-0.23331	0.00351	0.036011	-0.027924	0.12817	-0.000305	-0.041199	-0.22064	0.041046	-0.003357	0.040894	0.060272	0.014954	0.004272	-0.031891	-0.22064	0.6308	-0.020752	-0.24719	0.058441	-0.27451	0.064392	0.009003	-0.006866	0.023956	-0.005035	-0.13412	-0.043945	-0.001984	-0.003357
35.87	0.007324	0.061798	-0.22369	-0.010071	0.032349	-0.019226	0.14221	0.003815	-0.058136	-0.092468	0.010376	0.000763	0.075073	0.090942	-0.062714	0.00824	-0.006714	-0.19486	0.59006	-0.019379	0.042725	0.002594	-0.37079	-0.082855	0.28366	-0.01358	0.019379	-0.00824	-0.16083	-0.044403	-0.009613	-0.007629
35.871	0.011444	0.071716	-0.21011	-0.011444	0.015564	0.023041	0.12985	0.004425	-0.065765	0.053711	0.040436	-0.007629	0.11902	0.11444	-0.10208	0.002747	0.013733	-0.177	0.53055	-0.065613	0.2977	-0.094452	-0.3302	-0.29572	0.3418	-0.00824	0.015259	-0.005035	-0.05661	-0.03952	-0.002747	-0.013123
35.872	-0.001984	0.054321	-0.2626	0.011902	0.010071	-0.014496	0.13947	0.005951	-0.065765	-0.046844	0.047455	-0.000153	0.14404	0.090942	-0.081482	0.007935	0.054779	-0.1033	0.19562	0.007935	0.34607	-0.17242	-0.34012	-0.24414	0.28061	-0.006409	0.007019	-0.002289	-0.013275	-0.045471	-0.002747	-0.017242
35.873	0.003204	0.063171	-0.26993	0.009155	-0.004272	-0.025482	0.15243	0.001221	-0.068054	-0.085602	0.098877	-0.002289	0.055389	0.076752	0.003815	0.003815	0.054169	0.008392	-0.40009	0.05249	0.22675	-0.14893	-0.38101	-0.16007	0.26123	-0.006561	0.006104	-0.004425	0.002289	-0.039825	-0.006714	-0.014038
35.874	0.015564	0.003204	-0.22766	0.001373	-0.01709	-0.046844	0.17563	-0.000305	-0.060577	-0.09613	-0.020447	0.004578	-0.017853	0.032959	0.059662	0.006714	0.032959	-0.04425	-0.78445	0.008087	0.06546	-0.10651	-0.32288	-0.22018	0.22293	0.001984	0.014343	-0.005798	-0.000458	-0.053558	-0.00061	-0.01297
35.875	0.015106	0.040741	-0.20721	-0.007629	-0.013733	-0.03067	0.16098	0.00473	-0.056458	-0.001373	-0.056152	0.007477	-0.001831	-0.032806	0.066833	0.001068	-0.009155	-0.022278	-0.64697	-0.023651	0.10223	-0.086975	-0.34027	-0.23377	0.23041	-0.004883	0.016327	-0.001373	-0.009308	-0.052948	0.000458	-0.011902
35.876	0.012054	0.026855	-0.233	-0.003204	0.024719	-0.082703	0.15854	-0.001678	-0.050507	0.021362	-0.023651	0.010529	-0.03891	-0.00885	0.034332	0.002899	-0.049286	-0.036163	-0.039978	-0.028839	0.13962	-0.067444	-0.32074	-0.10422	0.13702	-0.00061	-0.010376	0.000153	-0.026245	-0.047607	-0.001221	-0.028687
35.877	0.017242	0.0383	-0.21866	0.003967	0.022125	-0.020447	0.1506	0.007324	-0.047302	0.007629	-0.053253	0.001221	0.028381	0.003967	0.003967	0.010834	-0.030518	-0.090027	0.62088	-0.015411	0.27222	-0.16968	-0.35126	-0.13016	0.016632	-0.009918	-0.020142	0.004272	-0.012207	-0.034637	0.00061	-0.015869
35.878	0.009155	0.028839	-0.21454	0.014801	0.018005	0.017395	0.18402	-0.001373	-0.046844	0.042419	-0.043793	-0.003204	0.16419	-0.012512	-0.016785	-0.001068	0.006104	-0.10559	1.1906	-0.02533	0.15396	-0.099335	-0.30365	-0.35904	-0.16739	0.002441	0.00412	0.00061	-0.013275	-0.037842	-0.005798	-0.012207
35.879	0.013275	0.066071	-0.21454	0.020142	0.008545	0.032806	0.18753	0.00473	-0.054016	0.019836	-0.038757	-0.002594	0.082703	-0.033722	0.015564	0.006714	0.034027	-0.10269	1.57	-0.004425	-0.091858	0.00824	-0.27039	-0.42526	-0.22644	-0.004272	0.032501	-0.000763	-0.09201	-0.039215	-0.006256	-0.000763
35.88	0.018616	0.026703	-0.1976	0.016785	0.006561	0.035553	0.18066	0.000153	-0.033264	-0.011902	-0.02594	-0.004272	-0.099945	0.00412	0.032196	0.006256	0.067139	-0.26764	0.80215	0.033569	-0.023651	0.061493	-0.15595	-0.4454	-0.19211	-0.007629	0.03067	0.007477	-0.082245	-0.043182	-0.006561	-0.013428
35.881	0.016327	0.004883	-0.15259	0.004883	0.012665	0.012817	0.18143	0.003357	-0.036926	0.035248	0.016022	0.007019	-0.063019	0.008545	-0.015259	-0.005035	0.063171	-0.30609	0.10757	0.002289	-0.078278	0.039368	-0.21957	-0.20721	-0.13336	0.000458	0.033722	0.002594	-0.062103	-0.058746	-0.001678	-0.005188
35.882	0.012054	-0.003357	-0.13443	0.010529	0.012665	-0.011749	0.16724	-0.001831	-0.032959	0.070801	0.028992	0.00061	-0.019531	-0.044708	-0.007019	-0.006409	0.054626	-0.25406	0.13916	-0.027618	-0.25879	-0.040741	-0.24124	-0.041504	-0.1062	0.001221	0.035858	0.004578	-0.023346	-0.062714	-0.002747	-0.009918
35.883	0.016022	0.023499	-0.21316	0.034943	0.010681	-0.045319	0.15045	0.001678	-0.009155	0.058594	0.009918	-0.009613	0.027618	-0.000763	0.043335	0.003204	0.090332	-0.2388	0.019989	-0.038605	-0.18234	-0.18372	-0.25009	-0.11612	-0.078278	-0.003052	0.033569	-0.000458	-0.026703	-0.028381	-0.002594	-0.007782
35.884	0.016937	0.031433	-0.24323	0.020905	0.032349	-0.073242	0.13123	-0.002899	-0.013123	0.054474	0.013275	-0.003204	0.018921	0.023499	0.007019	0.007782	0.080109	-0.3186	-0.13565	0.001984	0.027161	-0.20493	-0.34439	-0.14755	-0.03479	-0.001221	0.015259	0.002441	-0.053864	-0.018311	0	-0.01358
35.885	0.018158	0.037994	-0.20538	0	0.036163	-0.074615	0.10162	-0.00412	-0.015411	0.070343	0.016632	-0.000153	-0.04303	-0.00061	-0.020142	0.006409	0.075378	-0.46967	-0.16312	0.017853	-0.036316	-0.18967	-0.27512	-0.22751	0.05188	0.001221	0.018463	0	-0.083466	-0.033569	-0.000916	-0.011292
35.886	0.017853	0.033722	-0.21652	-0.007172	0.024109	-0.072174	0.061493	-0.009003	-0.020752	0.043335	0.010376	0.003967	0.007477	-0.045471	-0.028992	0.010376	0.028687	-0.43488	-0.16586	0.018311	0.021667	-0.092163	-0.32028	-0.028534	0.12131	0.001068	0.009308	0.002747	-0.059967	-0.028992	-0.005493	-0.006409
35.887	0.015564	0.062866	-0.17258	-0.001221	0.024261	-0.059967	0.067291	-0.000763	-0.028992	0.1358	-0.003815	0.007935	0.050812	-0.025024	-0.057068	-0.005035	-0.074463	-0.38925	-0.19043	0.015411	-0.13931	0.074615	-0.40085	0.23285	0.13641	0	0.015869	-0.001678	-0.042267	-0.055542	-0.002441	-0.012817
35.888	0.017853	0.057526	-0.18265	0.001526	0.011139	-0.047455	0.05722	-0.002289	-0.016327	0.13519	0.002747	0.006104	-0.13031	0.019989	-0.050201	0.000763	-0.17242	-0.34195	-0.16922	0.046082	-0.063171	0.15533	-0.28351	0.3392	0.030212	-0.001526	0.015869	0.003204	-0.10468	-0.053711	-0.002899	-0.016937
35.889	0.016632	0.082092	-0.177	0.006409	0.025787	-0.022583	0.053558	-0.001068	-0.021973	0.081024	0.001984	0.00473	-0.15305	0.010223	-0.001526	-0.016327	-0.12955	-0.24368	-0.19363	0.09079	0.14862	-0.015259	-0.27344	0.26108	-0.11826	0.001373	0.028076	0.000153	-0.5336	-0.067596	-0.002594	-0.018768
35.89	0.015106	0.051727	-0.13412	-0.009003	0.00946	0.007629	0.039825	0.005493	-0.032349	0.14343	-0.00061	-0.003815	-0.11292	0.002747	0.043488	0.002747	-0.082703	-0.27847	-0.18143	0.086212	0.15167	-0.18204	-0.42862	0.21561	-0.086365	-0.00061	0.014496	0.004578	-0.63705	-0.072632	-0.000305	-0.031891
35.891	-0.001221	0.050507	-0.12131	-0.010834	0.009613	0.020294	0.02182	0.004425	-0.030365	0.66986	0.003204	0.006561	-0.072937	-0.036011	0.040131	-0.003357	-0.030518	-0.28275	-0.27542	0.028381	0.20508	-0.23804	-0.3186	0.18524	-0.030212	0.001068	0.00946	0.003815	-0.2478	-0.074158	-0.002594	-0.018616
35.892	0.008087	0.076752	-0.1149	-0.001984	0.008545	0.024109	0.009308	0.003815	-0.044861	0.53757	0.003967	-0.009766	-0.014496	-0.00885	0.030975	0.006561	0.010529	-0.20538	-0.26993	-0.043793	0.14862	-0.20264	-0.14618	0.36209	0.018768	0.001526	-0.028839	0.001526	0.64514	-0.059662	-0.000153	-0.020142
35.893	0.011749	0.081177	-0.093689	-0.000305	0.016785	-0.008545	0.000153	-0.003357	-0.058289	-0.59128	0.006256	-0.002136	0.078735	0.054169	0.012054	0.000916	0.056458	-0.23987	-0.19623	-0.021515	0.11551	-0.18097	-0.079651	0.55939	0.094604	-0.004883	-0.016022	0.006256	0.52841	-0.053558	0.000458	-0.014954
35.894	0.010529	0.071106	-0.10147	-0.00412	0.017242	0.034943	-0.009613	-0.000305	-0.068359	-0.4129	0.000763	0.005341	0.050812	0.09964	-0.003967	-0.004425	0.053101	-0.24857	-0.15427	-0.023041	-0.11749	-0.10559	-0.19333	0.15228	0.36652	-0.006409	-0.006409	-0.000305	0.17487	-0.05661	-0.006866	-0.009155
35.895	0.013733	0.10529	-0.10162	-0.000916	0.015259	0.045471	0.001526	0.000763	-0.069733	-0.30655	0.005493	0	0.028687	0.10544	0.001068	0.002136	0.072632	-0.27512	-0.49301	-0.071259	-0.084076	-0.013275	-0.3244	0.002289	0.46036	-0.005493	-0.005493	0.002594	0.038605	-0.046539	-0.000916	-0.012207
35.896	0.01358	0.10269	-0.12314	-0.002441	0.004578	0.032043	-0.037079	0.00473	-0.052795	-0.1091	0.007172	0.009003	0.14008	0.15915	-0.014648	0.006256	0.067444	-0.27084	-0.63385	0.002899	0.15091	0.15671	-0.3627	-0.18433	0.39246	-0.003967	-0.01358	0.001984	-0.005188	-0.040283	-0.001984	-0.012512
35.897	0.018158	0.080872	-0.10422	0.000916	0.005646	-0.001373	-0.048981	0.008698	-0.046539	-0.011597	0.001526	0.009003	0.11765	0.17395	-0.042725	0.009155	0.11932	-0.2504	-0.49194	-0.031586	0.014496	0.30792	-0.16296	-0.54108	0.21561	0.001373	0.023346	0.005035	-0.031281	-0.027161	-0.002594	-0.007629
35.898	0.013885	0.10346	-0.11215	0.028534	0.003967	0.010223	-0.062103	0.001678	-0.057068	-0.007324	0.005341	0.021973	-0.010529	0.17014	-0.054474	0.011292	0.1236	-0.177	-0.32196	-0.029144	0	0.24567	-0.11261	-0.68817	0.11871	0.007172	0.06012	0.000916	0.02243	-0.038757	-0.003967	-0.002594
35.899	0.011139	0.10178	-0.11704	0.034637	-0.002747	0.057068	-0.041504	0.005493	-0.048676	0.037384	0.000916	0.031281	0.012665	0.074158	-0.026093	0.011444	0.098724	-0.19119	-0.087891	0.009918	0.019684	0.27741	0.022736	-0.858	-0.1387	-0.000458	0.085449	0.001068	0.065308	-0.056763	-0.001068	-0.005188
35.9	0.009613	0.095673	-0.043793	0.023041	0.010071	0.027771	-0.03418	0.004578	-0.050812	0.028229	0.006104	0.002594	0.032043	0.032501	0.006714	-0.006714	0.035706	-0.14206	0.15717	0.064697	-0.027771	0.27466	0.069275	-1.0265	-0.21439	-0.013733	0.087891	-0.000305	0.061493	-0.056	-0.00885	-0.004272
